<?xml version="1.0" encoding="utf-8"?>
<!-- Svg Vector Icons : http://www.onlinewebfonts.com/icon -->
<!DOCTYPE svg PUBLIC "-//W3C//DTD SVG 1.1//EN" "http://www.w3.org/Graphics/SVG/1.1/DTD/svg11.dtd">
<svg version="1.1" xmlns="http://www.w3.org/2000/svg" fill="#FEC547" xmlns:xlink="http://www.w3.org/1999/xlink" x="0px" y="0px" viewBox="0 0 1000 1000" enable-background="new 0 0 1000 1000" xml:space="preserve">
<metadata> Svg Vector Icons : http://www.onlinewebfonts.com/icon </metadata>
<g><g transform="translate(0.000000,511.000000) scale(0.100000,-0.100000)"><path d="M797.1,3824.3c-257.9-49.6-502-242.1-617-484.1c-121-254-101.2-585.3,47.6-819.4c81.4-129,216.3-246,369-319.4l148.8-71.4h4255.8h4255.8l134.9,63.5c444.4,210.3,629,714.3,422.6,1150.7c-119,248-357.1,432.5-625,482.1C9056.7,3850.1,924.1,3850.1,797.1,3824.3z"/><path d="M765.4,941.4c-256-61.5-478.2-242.1-591.3-482.1c-59.5-127-63.5-148.8-63.5-353.2c0-214.3,2-224.2,73.4-369c91.3-184.5,242-333.3,426.6-420.6L745.5-747l4206.2-5.9c3805.4-4,4214.1-2,4315.3,27.8c160.7,45.6,285.7,121,394.8,236.1c470.2,498,204.4,1309.5-472.2,1438.4C9023,981.1,896.3,973.2,765.4,941.4z"/><path d="M775.3-1935.4c-256-55.6-486.1-238.1-597.2-478.2c-73.4-154.7-99.2-400.8-59.5-557.5c63.5-254,248-472.2,492.1-589.3l134.9-63.5h4255.8h4255.8l134.9,63.5c549.6,261.9,680.5,956.3,257.9,1388.8c-115.1,119-291.7,212.3-460.3,244C9027-1897.7,918.2-1903.7,775.3-1935.4z"/></g></g>
</svg>